<svg data-v-3670e996="" width="22" height="22" viewBox="0 0 22 22" fill="none" xmlns="http://www.w3.org/2000/svg"><path d="M17.281 5.39623L17.9711 3.47642H21.0272V0H0.127197V22H21.0272V18.5236H18.1189L17.0345 17.1745L15.9501 18.4717H7.76753V11.5708H5.05644L8.45762 3.5283H11.7602L12.5489 5.34434V3.5283H16.6402L17.281 5.39623ZM15.0135 6.6934V5.91509L15.3093 6.6934L16.6895 10.533H17.9711L19.3513 6.6934L19.5977 5.91509V10.4811H21.0272V4.61792H18.6612L17.5767 7.57547L17.281 8.40566L16.9852 7.57547L15.9008 4.61792H13.5347V10.4292H15.0135V6.6934ZM11.9574 10.4292H13.584L11.1194 4.56604H9.19701L6.73239 10.4292H8.35904L8.80267 9.28773H11.5138L11.9574 10.4292ZM9.8871 6.58962L10.1829 5.86321L10.4786 6.58962L11.0701 8.09434H9.34488L9.8871 6.58962ZM8.90125 11.5708V17.434H13.5347V16.1368H10.2814V15.0991H13.4362V13.8538H10.2814V12.816H13.5347V11.5708H8.90125ZM18.7597 17.3302H20.5836L17.9711 14.4245L20.5836 11.5189H18.7597L17.0838 13.4387L15.4079 11.5189H13.5347L16.1472 14.4764L13.5347 17.3821H15.3093L16.9852 15.4623L18.7597 17.3302ZM19.4498 14.4764L21.0272 16.1887V12.816L19.4498 14.4764Z" fill="white"></path></svg>