<svg data-v-3670e996="" width="30" height="22" viewBox="0 0 30 22" fill="none" xmlns="http://www.w3.org/2000/svg"><g clip-path="url(#clip0_2858_5885)"><path d="M28.9805 17.5086C28.9805 19.9319 26.9732 21.9052 24.5081 21.9052H0.173828V4.49182C0.173828 2.0685 2.18114 0.0952148 4.64626 0.0952148H28.9805V17.5086Z" fill="white"></path> <path d="M21.0576 13.0426H22.9065C22.9593 13.0426 23.0825 13.0253 23.1354 13.0253C23.4875 12.956 23.7869 12.6445 23.7869 12.2117C23.7869 11.7963 23.4875 11.4847 23.1354 11.3982C23.0825 11.3809 22.9769 11.3809 22.9065 11.3809H21.0576V13.0426Z" fill="url(#paint0_linear_2858_5885)"></path> <path d="M22.6949 1.56641C20.9341 1.56641 19.4903 2.96847 19.4903 4.71673V7.98823H24.0155C24.1212 7.98823 24.2444 7.98823 24.3325 8.00554C25.3537 8.05746 26.1109 8.57675 26.1109 9.47684C26.1109 10.1865 25.6002 10.7924 24.6494 10.9135V10.9481C25.6883 11.0174 26.4806 11.5886 26.4806 12.4714C26.4806 13.4234 25.6002 14.0465 24.4381 14.0465H19.4727V20.4511H24.174C25.9348 20.4511 27.3787 19.049 27.3787 17.3007V1.56641H22.6949Z" fill="url(#paint1_linear_2858_5885)"></path> <path d="M23.5579 9.68447C23.5579 9.26904 23.2586 8.99209 22.9065 8.94016C22.8712 8.94016 22.7832 8.92285 22.7304 8.92285H21.0576V10.4461H22.7304C22.7832 10.4461 22.8888 10.4461 22.9065 10.4288C23.2586 10.3769 23.5579 10.0999 23.5579 9.68447Z" fill="url(#paint2_linear_2858_5885)"></path> <path d="M4.98105 1.56641C3.22025 1.56641 1.7764 2.96847 1.7764 4.71673V12.4887C2.6744 12.9214 3.60763 13.1984 4.54085 13.1984C5.65016 13.1984 6.24883 12.5406 6.24883 11.6405V7.97091H8.99567V11.6232C8.99567 13.0426 8.09767 14.2023 5.05148 14.2023C3.20264 14.2023 1.75879 13.8042 1.75879 13.8042V20.4337H6.46012C8.22092 20.4337 9.66478 19.0317 9.66478 17.2834V1.56641H4.98105Z" fill="url(#paint3_linear_2858_5885)"></path> <path d="M13.8375 1.56641C12.0767 1.56641 10.6328 2.96847 10.6328 4.71673V8.83639C11.4428 8.16132 12.8514 7.72858 15.1229 7.83244C16.3378 7.88437 17.6408 8.21325 17.6408 8.21325V9.54608C16.9893 9.2172 16.2145 8.92294 15.2109 8.8537C13.4853 8.73253 12.4464 9.56339 12.4464 11.0174C12.4464 12.4887 13.4853 13.3195 15.2109 13.1811C16.2145 13.1118 16.9893 12.8003 17.6408 12.4887V13.8215C17.6408 13.8215 16.3554 14.1504 15.1229 14.2023C12.8514 14.3062 11.4428 13.8735 10.6328 13.1984V20.4684H15.3341C17.0949 20.4684 18.5388 19.0663 18.5388 17.318V1.56641H13.8375Z" fill="url(#paint4_linear_2858_5885)"></path></g> <defs><linearGradient id="paint0_linear_2858_5885" x1="19.4876" y1="12.2138" x2="27.4001" y2="12.2138" gradientUnits="userSpaceOnUse"><stop stop-color="#007940"></stop> <stop offset="0.2285" stop-color="#00873F"></stop> <stop offset="0.7433" stop-color="#40A737"></stop> <stop offset="1" stop-color="#5CB531"></stop></linearGradient> <linearGradient id="paint1_linear_2858_5885" x1="19.4871" y1="11.0012" x2="27.4003" y2="11.0012" gradientUnits="userSpaceOnUse"><stop stop-color="#007940"></stop> <stop offset="0.2285" stop-color="#00873F"></stop> <stop offset="0.7433" stop-color="#40A737"></stop> <stop offset="1" stop-color="#5CB531"></stop></linearGradient> <linearGradient id="paint2_linear_2858_5885" x1="19.4874" y1="9.68231" x2="27.4002" y2="9.68231" gradientUnits="userSpaceOnUse"><stop stop-color="#007940"></stop> <stop offset="0.2285" stop-color="#00873F"></stop> <stop offset="0.7433" stop-color="#40A737"></stop> <stop offset="1" stop-color="#5CB531"></stop></linearGradient> <linearGradient id="paint3_linear_2858_5885" x1="1.77267" y1="11.0012" x2="9.80773" y2="11.0012" gradientUnits="userSpaceOnUse"><stop stop-color="#1F286F"></stop> <stop offset="0.4751" stop-color="#004E94"></stop> <stop offset="0.8261" stop-color="#0066B1"></stop> <stop offset="1" stop-color="#006FBC"></stop></linearGradient> <linearGradient id="paint4_linear_2858_5885" x1="10.5873" y1="11.0012" x2="18.3912" y2="11.0012" gradientUnits="userSpaceOnUse"><stop stop-color="#6C2C2F"></stop> <stop offset="0.1735" stop-color="#882730"></stop> <stop offset="0.5731" stop-color="#BE1833"></stop> <stop offset="0.8585" stop-color="#DC0436"></stop> <stop offset="1" stop-color="#E60039"></stop></linearGradient> <clipPath id="clip0_2858_5885"><rect width="29" height="22" fill="white" transform="translate(0.0771484)"></rect></clipPath></defs></svg>