<svg data-v-3670e996="" width="29" height="22" viewBox="0 0 29 22" fill="none" xmlns="http://www.w3.org/2000/svg"><path d="M5.4107 21.8751V20.4187C5.41927 20.2962 5.40155 20.1733 5.35873 20.0582C5.31592 19.943 5.24899 19.8383 5.1624 19.7511C5.07582 19.6638 4.97158 19.5959 4.85662 19.552C4.74167 19.5081 4.61865 19.4891 4.49577 19.4963C4.33494 19.4859 4.17425 19.5187 4.03044 19.5912C3.88664 19.6638 3.76498 19.7735 3.67815 19.909C3.59902 19.7776 3.48583 19.6699 3.3505 19.5973C3.21518 19.5247 3.06272 19.4898 2.9092 19.4963C2.77537 19.4896 2.6421 19.5179 2.5226 19.5784C2.40309 19.6388 2.30149 19.7293 2.22785 19.841V19.5546H1.72168V21.8751H2.23269V20.5886C2.22164 20.5092 2.22836 20.4284 2.25235 20.3519C2.27634 20.2754 2.31702 20.2052 2.37146 20.1462C2.4259 20.0873 2.49275 20.0411 2.56721 20.011C2.64167 19.9809 2.72189 19.9676 2.80211 19.9721C3.13792 19.9721 3.30828 20.1905 3.30828 20.5837V21.8751H3.81929V20.5886C3.80907 20.5093 3.81636 20.4288 3.84066 20.3527C3.86496 20.2766 3.90568 20.2067 3.95994 20.148C4.01421 20.0892 4.08072 20.043 4.15479 20.0126C4.22886 19.9822 4.3087 19.9684 4.3887 19.9721C4.73422 19.9721 4.89969 20.1905 4.89969 20.5837V21.8751H5.4107ZM12.9737 19.5546H12.1463V18.8507H11.6353V19.5546H11.1632V20.0158H11.6353V21.0741C11.6353 21.6129 11.8446 21.9333 12.4432 21.9333C12.6668 21.934 12.8861 21.8717 13.0759 21.7537L12.9299 21.3216C12.7942 21.4024 12.6401 21.4475 12.4821 21.4527C12.2291 21.4527 12.1463 21.2973 12.1463 21.0644V20.0158H12.9737V19.5546ZM17.2905 19.4963C17.1671 19.4927 17.045 19.5224 16.9371 19.5822C16.8292 19.642 16.7394 19.7297 16.6773 19.8362V19.5546H16.176V21.8751H16.6822V20.574C16.6822 20.1905 16.8476 19.9769 17.1786 19.9769C17.2869 19.9755 17.3944 19.9952 17.4949 20.0352L17.6507 19.5594C17.5351 19.5182 17.4133 19.4968 17.2905 19.4963ZM10.7642 19.7391C10.4777 19.5691 10.1483 19.4849 9.81515 19.4963C9.22627 19.4963 8.84668 19.7779 8.84668 20.2391C8.84668 20.6177 9.12894 20.8508 9.64966 20.9236L9.88814 20.9575C10.1655 20.9963 10.297 21.0692 10.297 21.2002C10.297 21.3799 10.112 21.4818 9.76648 21.4818C9.48853 21.4898 9.21598 21.4043 8.99265 21.2391L8.7542 21.6323C9.04901 21.8377 9.40215 21.9432 9.76161 21.9333C10.4332 21.9333 10.8225 21.6177 10.8225 21.176C10.8225 20.7682 10.516 20.5546 10.0098 20.4818L9.77137 20.4478C9.55234 20.4187 9.37715 20.375 9.37715 20.2197C9.37715 20.0498 9.54257 19.9478 9.82002 19.9478C10.0748 19.9516 10.3243 20.0201 10.5452 20.1468L10.7642 19.7391ZM24.323 19.4963C24.1996 19.4927 24.0775 19.5224 23.9696 19.5822C23.8617 19.642 23.7719 19.7297 23.7098 19.8362V19.5546H23.2085V21.8751H23.7147V20.574C23.7147 20.1905 23.8801 19.9769 24.2111 19.9769C24.3193 19.9754 24.4268 19.9952 24.5275 20.0352L24.6832 19.5594C24.5676 19.5182 24.4458 19.4968 24.323 19.4963ZM17.8015 20.7148C17.7948 20.8782 17.8224 21.0413 17.8827 21.1935C17.943 21.3457 18.0345 21.4836 18.1514 21.5983C18.2683 21.7131 18.4079 21.8022 18.5614 21.8599C18.7149 21.9176 18.8788 21.9426 19.0426 21.9333C19.3465 21.9485 19.645 21.8498 19.8796 21.6566L19.6363 21.2488C19.4613 21.3818 19.248 21.455 19.028 21.4575C18.8383 21.446 18.6602 21.3628 18.5299 21.2248C18.3997 21.0867 18.3272 20.9043 18.3272 20.7148C18.3272 20.5253 18.3997 20.3429 18.5299 20.2048C18.6602 20.0668 18.8383 19.9836 19.028 19.9721C19.248 19.9746 19.4613 20.0478 19.6363 20.1808L19.8796 19.773C19.645 19.5798 19.3465 19.4811 19.0426 19.4963C18.8788 19.487 18.715 19.5121 18.5615 19.5697C18.408 19.6274 18.2683 19.7165 18.1514 19.8313C18.0345 19.946 17.943 20.0839 17.8827 20.2361C17.8225 20.3882 17.7948 20.5513 17.8015 20.7148ZM22.5418 20.7148V19.5546H22.0356V19.8362C21.9492 19.7251 21.8374 19.6363 21.7096 19.5772C21.5817 19.5181 21.4415 19.4903 21.3007 19.4963C20.9871 19.5117 20.6914 19.6468 20.4749 19.8736C20.2584 20.1004 20.1376 20.4016 20.1376 20.7148C20.1376 21.028 20.2584 21.3292 20.4749 21.5561C20.6914 21.7829 20.9871 21.918 21.3007 21.9333C21.4415 21.9393 21.5817 21.9116 21.7096 21.8525C21.8374 21.7933 21.9492 21.7045 22.0356 21.5935V21.8751H22.5418V20.7148ZM20.6583 20.7148C20.6662 20.5778 20.714 20.4462 20.796 20.3361C20.878 20.226 20.9904 20.1422 21.1196 20.095C21.2487 20.0479 21.3888 20.0395 21.5227 20.0709C21.6565 20.1023 21.7783 20.172 21.8728 20.2716C21.9674 20.3711 22.0307 20.4961 22.055 20.6311C22.0792 20.7661 22.0633 20.9053 22.0092 21.0313C21.9551 21.1574 21.8652 21.265 21.7505 21.3407C21.6359 21.4164 21.5015 21.4571 21.364 21.4575C21.2677 21.4588 21.1721 21.4402 21.0833 21.4028C20.9945 21.3654 20.9144 21.3101 20.8481 21.2403C20.7818 21.1706 20.7307 21.0878 20.698 20.9974C20.6654 20.9069 20.6518 20.8107 20.6583 20.7148ZM14.5505 19.4963C14.2349 19.5129 13.938 19.6508 13.722 19.881C13.5061 20.1112 13.3879 20.4159 13.3923 20.7312C13.3967 21.0464 13.5234 21.3477 13.7457 21.5719C13.968 21.796 14.2686 21.9255 14.5846 21.9333C14.9318 21.9455 15.2714 21.8297 15.5385 21.608L15.2903 21.2342C15.0981 21.3879 14.8601 21.4733 14.6138 21.477C14.4466 21.491 14.2804 21.4396 14.1505 21.3335C14.0206 21.2275 13.9372 21.0752 13.9179 20.9089H15.6456C15.6504 20.8459 15.6553 20.7828 15.6553 20.7148C15.6504 19.9915 15.2027 19.4963 14.5505 19.4963ZM14.5408 19.9478C14.6937 19.9448 14.8415 20.0024 14.9519 20.108C15.0623 20.2135 15.1262 20.3584 15.1297 20.5109H13.9227C13.9316 20.3551 14.0012 20.209 14.1167 20.1038C14.2322 19.9985 14.3844 19.9426 14.5408 19.9478ZM27.2382 20.7148V18.6226H26.7321V19.8362C26.6457 19.7251 26.5339 19.6363 26.406 19.5772C26.2782 19.5181 26.138 19.4903 25.9972 19.4963C25.6836 19.5117 25.3879 19.6467 25.1713 19.8736C24.9548 20.1004 24.834 20.4016 24.834 20.7148C24.834 21.028 24.9548 21.3293 25.1713 21.5561C25.3879 21.7829 25.6836 21.918 25.9972 21.9333C26.138 21.9393 26.2782 21.9116 26.406 21.8525C26.5339 21.7933 26.6457 21.7045 26.7321 21.5935V21.8751H27.2382V20.7148ZM28.0819 21.5388C28.1134 21.5385 28.1445 21.5447 28.1735 21.5569C28.2014 21.5685 28.2268 21.5852 28.2483 21.6063C28.2697 21.6273 28.2868 21.6523 28.2987 21.6798C28.3109 21.7081 28.3172 21.7385 28.3172 21.7693C28.3172 21.8 28.3109 21.8305 28.2987 21.8587C28.2868 21.8861 28.2696 21.911 28.2483 21.9319C28.2267 21.953 28.2013 21.9699 28.1735 21.9816C28.1446 21.994 28.1134 22.0003 28.0819 22C28.0356 22.0005 27.9902 21.9874 27.9514 21.9622C27.9125 21.9371 27.882 21.9011 27.8635 21.8587C27.8514 21.8305 27.8451 21.8 27.8451 21.7693C27.8451 21.7385 27.8514 21.7081 27.8635 21.6798C27.8754 21.6523 27.8924 21.6274 27.9137 21.6063C27.9352 21.5851 27.9607 21.5683 27.9888 21.5569C28.0183 21.5447 28.05 21.5385 28.0819 21.5388ZM28.0819 21.9492C28.1059 21.9494 28.1297 21.9445 28.1517 21.935C28.1728 21.9259 28.192 21.9128 28.2083 21.8966C28.2419 21.8627 28.2608 21.817 28.2608 21.7694C28.2608 21.7217 28.2419 21.676 28.2083 21.6422C28.1921 21.626 28.1728 21.613 28.1517 21.6041C28.1297 21.5947 28.1059 21.59 28.0819 21.5902C28.0576 21.59 28.0334 21.5947 28.0108 21.6041C27.9894 21.6129 27.9698 21.6258 27.9533 21.6422C27.9197 21.676 27.9008 21.7217 27.9008 21.7694C27.9008 21.817 27.9197 21.8627 27.9533 21.8966C27.9698 21.913 27.9894 21.926 28.0108 21.935C28.0333 21.9445 28.0575 21.9493 28.0819 21.9492ZM28.0956 21.6614C28.1183 21.6599 28.1409 21.6664 28.1593 21.6798C28.1667 21.6859 28.1725 21.6935 28.1764 21.7022C28.1803 21.7109 28.1821 21.7203 28.1817 21.7298C28.182 21.738 28.1805 21.7461 28.1774 21.7536C28.1744 21.7611 28.1697 21.768 28.1639 21.7736C28.1498 21.7861 28.1319 21.7936 28.1131 21.7948L28.1834 21.8757H28.1285L28.0633 21.7954H28.0423V21.8757H27.9964V21.6614H28.0956ZM28.0423 21.7016V21.7587H28.095C28.1051 21.7592 28.1152 21.7567 28.1239 21.7516C28.1275 21.7492 28.1303 21.746 28.1322 21.7421C28.1341 21.7383 28.1349 21.7341 28.1347 21.7298C28.1349 21.7257 28.134 21.7215 28.1321 21.7178C28.1303 21.7141 28.1274 21.7109 28.1239 21.7086C28.1152 21.7035 28.1051 21.7011 28.095 21.7016H28.0423ZM25.3548 20.7148C25.3627 20.5778 25.4105 20.4462 25.4925 20.3361C25.5744 20.226 25.6869 20.1422 25.8161 20.0951C25.9452 20.048 26.0853 20.0396 26.2192 20.071C26.353 20.1024 26.4747 20.1721 26.5693 20.2717C26.6639 20.3712 26.7272 20.4962 26.7514 20.6312C26.7756 20.7662 26.7597 20.9053 26.7056 21.0314C26.6515 21.1575 26.5616 21.265 26.4469 21.3407C26.3323 21.4165 26.1979 21.4571 26.0605 21.4575C25.9641 21.4588 25.8685 21.4402 25.7797 21.4028C25.6909 21.3654 25.6108 21.3101 25.5445 21.2403C25.4782 21.1705 25.4271 21.0878 25.3945 20.9974C25.3618 20.9069 25.3483 20.8107 25.3548 20.7148ZM8.26265 20.7148V19.5546H7.75649V19.8362C7.67009 19.7251 7.5583 19.6363 7.43044 19.5772C7.30259 19.5181 7.1624 19.4903 7.0216 19.4963C6.70798 19.5117 6.41228 19.6468 6.19576 19.8736C5.97923 20.1004 5.85846 20.4016 5.85846 20.7148C5.85846 21.028 5.97923 21.3292 6.19576 21.5561C6.41228 21.7829 6.70798 21.918 7.0216 21.9333C7.1624 21.9393 7.30259 21.9116 7.43044 21.8525C7.5583 21.7933 7.67009 21.7045 7.75649 21.5935V21.8751H8.26265V20.7148ZM6.37922 20.7148C6.38708 20.5778 6.43495 20.4462 6.51691 20.3361C6.59888 20.226 6.71136 20.1422 6.84048 20.0951C6.96961 20.048 7.10974 20.0396 7.24358 20.071C7.37743 20.1024 7.49915 20.1721 7.59372 20.2717C7.6883 20.3712 7.75159 20.4962 7.77581 20.6312C7.80003 20.7662 7.7841 20.9053 7.73 21.0314C7.6759 21.1575 7.58599 21.265 7.47135 21.3407C7.35672 21.4165 7.22237 21.4571 7.08488 21.4575C6.98851 21.4588 6.89291 21.4402 6.80411 21.4028C6.71532 21.3654 6.63525 21.3101 6.56895 21.2403C6.50266 21.1705 6.45157 21.0878 6.41892 20.9974C6.38626 20.9069 6.37275 20.8107 6.37922 20.7148Z" fill="white"></path> <path d="M18.2512 1.86865H10.585V15.6103H18.2512V1.86865Z" fill="#FF5F00"></path> <path d="M11.0803 8.7388C11.0791 7.41538 11.3798 6.10904 11.9595 4.91865C12.5393 3.72827 13.383 2.68505 14.4267 1.86798C13.1342 0.854614 11.582 0.224421 9.94738 0.0494235C8.3128 -0.125574 6.66184 0.161686 5.1832 0.87837C3.70456 1.59505 2.45789 2.71224 1.5857 4.10225C0.713507 5.49225 0.250977 7.09899 0.250977 8.7388C0.250977 10.3786 0.713507 11.9854 1.5857 13.3754C2.45789 14.7654 3.70456 15.8826 5.1832 16.5992C6.66184 17.3159 8.3128 17.6032 9.94738 17.4282C11.582 17.2532 13.1342 16.623 14.4267 15.6096C13.383 14.7926 12.5393 13.7493 11.9595 12.559C11.3798 11.3686 11.0791 10.0622 11.0803 8.7388Z" fill="#EB001B"></path> <path d="M28.5942 8.73879C28.5943 10.3786 28.1318 11.9853 27.2597 13.3753C26.3875 14.7653 25.1409 15.8825 23.6623 16.5992C22.1837 17.3159 20.5327 17.6032 18.8982 17.4282C17.2636 17.2532 15.7114 16.623 14.4189 15.6096C15.4617 14.7917 16.3047 13.7483 16.8844 12.5581C17.4641 11.3679 17.7653 10.062 17.7653 8.73879C17.7653 7.41558 17.4641 6.10965 16.8844 4.91945C16.3047 3.72926 15.4617 2.68587 14.4189 1.86797C15.7114 0.85461 17.2636 0.224417 18.8982 0.0494219C20.5327 -0.125573 22.1837 0.161692 23.6623 0.878382C25.1409 1.59507 26.3875 2.71227 27.2597 4.10227C28.1318 5.49227 28.5943 7.099 28.5942 8.73879Z" fill="#F79E1B"></path> <path d="M27.7706 14.1561V13.8748H27.8844V13.8175H27.5947V13.8748H27.7085V14.1561H27.7706ZM28.3329 14.1561V13.8169H28.2442L28.142 14.0502L28.0399 13.8169H27.9511V14.1561H28.0138V13.9002L28.1095 14.1209H28.1745L28.2703 13.8997V14.1561H28.3329Z" fill="#F79E1B"></path></svg>