<svg data-v-3670e996="" width="31" height="24" viewBox="0 0 31 24" fill="none" xmlns="http://www.w3.org/2000/svg"><g clip-path="url(#clip0_2875_6560)"><path opacity="0.68" d="M19.5889 3.82808C19.7328 2.86806 19.5879 2.21498 19.0914 1.62323C18.5448 0.971903 17.5573 0.692871 16.2939 0.692871H12.6265C12.3684 0.692871 12.1484 0.889324 12.1083 1.15616L10.581 11.2832C10.551 11.4831 10.6987 11.6637 10.892 11.6637H13.1561L12.9998 12.7C12.9735 12.8749 13.1026 13.0329 13.2718 13.0329H15.1803C15.4061 13.0329 15.5984 12.861 15.6336 12.6276L15.6524 12.5261L16.0118 10.142L16.035 10.0103C16.0703 9.77698 16.2626 9.60491 16.4884 9.60491H16.7738C18.6227 9.60491 20.0703 8.81948 20.4933 6.54776C20.6701 5.59855 20.5786 4.8062 20.1112 4.24914C19.97 4.08097 19.794 3.9417 19.5889 3.82808Z" fill="white"></path> <path opacity="0.7" d="M19.5889 3.82808C19.7329 2.86806 19.5879 2.21498 19.0914 1.62323C18.5448 0.971903 17.5573 0.692871 16.2939 0.692871H12.6265C12.3684 0.692871 12.1484 0.889324 12.1083 1.15616L10.581 11.2832C10.551 11.4831 10.6987 11.6637 10.892 11.6637H13.1561L13.7248 7.89214L13.7071 8.01041C13.7474 7.7437 13.9653 7.54712 14.2236 7.54712H15.2997C17.4131 7.54712 19.068 6.64919 19.5514 4.05244C19.5658 3.97576 19.5779 3.90123 19.5889 3.82808Z" fill="white"></path> <path d="M14.3358 3.84077C14.36 3.68039 14.4585 3.54892 14.5911 3.48256C14.6513 3.45239 14.7187 3.43555 14.7893 3.43555H17.6641C18.0047 3.43555 18.3222 3.45893 18.6125 3.50782C18.6954 3.52177 18.7762 3.53786 18.8546 3.55609C18.933 3.57431 19.0092 3.59455 19.0829 3.61717C19.1198 3.62836 19.1559 3.6403 19.1916 3.65262C19.3342 3.70214 19.467 3.76046 19.5891 3.82821C19.7331 2.86819 19.5881 2.2151 19.0916 1.62335C18.5448 0.971903 17.5573 0.692871 16.2939 0.692871H12.6265C12.3684 0.692871 12.1484 0.889324 12.1083 1.15616L10.581 11.2832C10.551 11.4831 10.6987 11.6637 10.892 11.6637H13.1561L13.7248 7.89214L14.3358 3.84077Z" fill="white"></path> <path d="M20.7665 15.0327H18.457C18.2992 15.0327 18.1648 15.1529 18.1402 15.316L17.2062 21.5088C17.1879 21.631 17.2781 21.7415 17.3964 21.7415H18.5814C18.6918 21.7415 18.7861 21.6575 18.8032 21.5432L19.0681 19.7876C19.0927 19.6244 19.2271 19.5043 19.385 19.5043H20.1158C21.6369 19.5043 22.5148 18.7344 22.7443 17.2086C22.8475 16.5413 22.7484 16.0169 22.4496 15.6498C22.1212 15.2461 21.5391 15.0327 20.7665 15.0327ZM21.0331 17.2944C20.9068 18.1614 20.2738 18.1614 19.6613 18.1614H19.313L19.5573 16.5428C19.5722 16.4449 19.6528 16.3728 19.7475 16.3728H19.9072C20.324 16.3728 20.7178 16.3728 20.9207 16.6211C21.0423 16.7698 21.0789 16.9901 21.0331 17.2944Z" fill="white"></path> <path d="M4.29508 15.0327H1.98571C1.82784 15.0327 1.69343 15.1529 1.66872 15.316L0.734802 21.5088C0.716431 21.631 0.80673 21.7415 0.925053 21.7415H2.02774C2.18561 21.7415 2.32002 21.6214 2.34472 21.4583L2.59673 19.7876C2.62133 19.6244 2.75574 19.5043 2.91361 19.5043H3.64441C5.16559 19.5043 6.04346 18.7344 6.27295 17.2086C6.37622 16.5413 6.2771 16.0169 5.97838 15.6498C5.64978 15.2461 5.06761 15.0327 4.29508 15.0327ZM4.56162 17.2944C4.43541 18.1614 3.80228 18.1614 3.19001 18.1614H2.84158L3.0859 16.5428C3.10075 16.4449 3.18129 16.3728 3.27605 16.3728H3.43579C3.85262 16.3728 4.2464 16.3728 4.44932 16.6211C4.57075 16.7698 4.6075 16.9901 4.56162 17.2944Z" fill="white"></path> <path d="M11.1975 17.2665H10.0918C9.99702 17.2665 9.91637 17.3385 9.90153 17.4365L9.85295 17.7598L9.77563 17.6427C9.53608 17.2792 9.00238 17.1577 8.4694 17.1577C7.24777 17.1577 6.20404 18.1259 6.00091 19.4838C5.89515 20.1612 6.04523 20.8087 6.41255 21.2606C6.74998 21.6757 7.23158 21.8485 7.80534 21.8485C8.79002 21.8485 9.33628 21.1869 9.33628 21.1869L9.28687 21.5084C9.26829 21.6306 9.35859 21.7412 9.47702 21.7412H10.4729C10.6308 21.7412 10.7651 21.6211 10.7898 21.4581L11.3876 17.4992C11.4061 17.3769 11.3158 17.2665 11.1975 17.2665ZM9.65637 19.5175C9.54957 20.1782 9.04794 20.6218 8.40817 20.6218C8.08745 20.6218 7.83067 20.5139 7.66564 20.3096C7.50206 20.1072 7.44051 19.8187 7.49241 19.4974C7.59195 18.8425 8.10167 18.3846 8.73169 18.3846C9.04566 18.3846 9.30068 18.4935 9.46892 18.6997C9.63831 18.9073 9.70484 19.1977 9.65637 19.5175Z" fill="white"></path> <path d="M27.6691 17.2665H26.5634C26.4686 17.2665 26.3879 17.3385 26.3732 17.4365L26.3245 17.7598L26.2472 17.6427C26.0077 17.2792 25.474 17.1577 24.941 17.1577C23.7192 17.1577 22.6756 18.1259 22.4726 19.4838C22.3668 20.1612 22.5169 20.8087 22.8842 21.2606C23.2217 21.6757 23.7033 21.8485 24.277 21.8485C25.2617 21.8485 25.808 21.1869 25.808 21.1869L25.7586 21.5084C25.74 21.6306 25.8303 21.7412 25.9487 21.7412H26.9446C27.1025 21.7412 27.2368 21.6211 27.2615 21.4581L27.8593 17.4992C27.8778 17.3769 27.7874 17.2665 27.6691 17.2665ZM26.1281 19.5175C26.0213 20.1782 25.5197 20.6218 24.88 20.6218C24.5591 20.6218 24.3025 20.5139 24.1373 20.3096C23.9738 20.1072 23.9122 19.8187 23.9641 19.4974C24.0637 18.8425 24.5732 18.3846 25.2033 18.3846C25.5172 18.3846 25.7723 18.4935 25.9406 18.6997C26.1099 18.9073 26.1764 19.1977 26.1281 19.5175Z" fill="white"></path> <path d="M17.0873 17.2672H15.9757C15.8695 17.2672 15.77 17.3224 15.7102 17.4144L14.177 19.7759L13.5272 17.5065C13.4865 17.3646 13.3615 17.2671 13.2199 17.2671H12.1272C11.9953 17.2671 11.9025 17.4028 11.945 17.5335L13.1689 21.2904L12.0177 22.9889C11.9273 23.1223 12.0186 23.3067 12.1749 23.3067H13.2852C13.3905 23.3067 13.489 23.2527 13.549 23.1622L17.2454 17.5832C17.3339 17.4498 17.2425 17.2672 17.0873 17.2672Z" fill="white"></path> <path d="M28.9725 15.2027L28.0246 21.5088C28.0062 21.6309 28.0965 21.7414 28.2147 21.7414H29.1681C29.326 21.7414 29.4604 21.6213 29.4851 21.4582L30.4196 15.2654C30.4381 15.1432 30.3478 15.0327 30.2295 15.0327H29.1628C29.0679 15.0326 28.9873 15.1048 28.9725 15.2027Z" fill="white"></path></g> <defs><clipPath id="clip0_2875_6560"><rect width="29.6896" height="22.6139" fill="white" transform="translate(0.732422 0.692871)"></rect></clipPath></defs></svg>