<svg data-v-3670e996="" width="52" height="32" viewBox="0 0 52 32" fill="none" xmlns="http://www.w3.org/2000/svg"><g clip-path="url(#clip0_2875_6522)"><path d="M10.4415 0.000370948H23.2093C23.6096 -0.0169522 24.0082 0.0627697 24.371 0.232742C24.7339 0.402715 25.0503 0.657898 25.2932 0.976544C25.5362 1.29519 25.6985 1.66785 25.7663 2.06276C25.8341 2.45768 25.8055 2.86314 25.6828 3.24458L19.7082 28.7621C19.4744 29.6554 18.962 30.4509 18.2454 31.0332C17.5288 31.6155 16.6453 31.9543 15.7231 32.0004H2.98524C2.5856 32.0173 2.18777 31.9376 1.82554 31.768C1.46331 31.5983 1.14737 31.3437 0.904571 31.0259C0.661768 30.708 0.499272 30.3362 0.430884 29.9421C0.362495 29.548 0.390236 29.1432 0.511748 28.7621L6.48636 3.24458C6.71498 2.35352 7.22173 1.55856 7.93299 0.975151C8.64425 0.391746 9.52298 0.0502862 10.4415 0.000370948Z" fill="#ED171F"></path> <path d="M22.1458 0H36.8254C38.6178 0 37.8053 1.45183 37.3871 3.24421L31.4423 28.7618C31.0301 30.5541 31.1555 32 29.3691 32H14.6895C14.29 32.0174 13.8921 31.9378 13.5299 31.7682C13.1678 31.5985 12.852 31.3438 12.6096 31.0256C12.3672 30.7075 12.2053 30.3355 12.1379 29.9413C12.0704 29.5471 12.0992 29.1424 12.222 28.7618L18.1608 3.24421C18.3918 2.34894 18.9032 1.55108 19.6203 0.967352C20.3373 0.383618 21.2223 0.0446395 22.1458 0" fill="#082F67"></path> <path d="M36.2701 0.000370948H49.014C49.4143 -0.0169522 49.8129 0.0627697 50.1757 0.232742C50.5386 0.402715 50.855 0.657898 51.0979 0.976544C51.3409 1.29519 51.5032 1.66785 51.571 2.06276C51.6388 2.45768 51.6102 2.86314 51.4875 3.24458L45.5128 28.7621C45.2796 29.6568 44.7665 30.4535 44.0486 31.036C43.3306 31.6185 42.4453 31.9564 41.5218 32.0004H28.7899C28.3903 32.0173 27.9925 31.9376 27.6302 31.768C27.268 31.5983 26.9521 31.3437 26.7093 31.0259C26.4665 30.708 26.304 30.3362 26.2356 29.9421C26.1672 29.548 26.1949 29.1432 26.3164 28.7621L32.2612 3.24458C32.4926 2.34509 33.0073 1.54396 33.7293 0.959699C34.4513 0.375438 35.3422 0.0390769 36.2701 0.000370948Z" fill="#006A65"></path> <path fill-rule="evenodd" clip-rule="evenodd" d="M34.1129 24.0067H35.3078L35.6723 22.8476H34.4774L34.1129 24.0067ZM35.0748 20.8162L34.6626 22.1844C34.8902 22.0648 35.1258 21.961 35.3676 21.8737C35.6126 21.82 35.9651 21.7722 35.9651 21.7722L36.2578 20.8162H35.0748ZM35.6723 18.8446L35.272 20.159C35.4975 20.0559 35.729 19.9661 35.9651 19.8902C36.1617 19.8456 36.3614 19.8156 36.5625 19.8006L36.8493 18.8446H35.6723ZM38.337 18.8446L36.7836 23.9947H37.1958L36.8672 25.0582H36.449L36.3534 25.3868H34.8777L34.9792 25.0582H31.9919L32.2966 24.0724H32.6014L34.1786 18.8446L34.4774 17.7871H35.989L35.8276 18.3188C36.0659 18.1502 36.3276 18.0173 36.6043 17.9245C36.9867 17.823 39.1794 17.7871 39.1794 17.7871L38.8568 18.8386L38.337 18.8446Z" fill="white"></path> <path d="M39.0066 17.793H40.6138V18.3904C40.6138 18.492 40.6914 18.5398 40.8826 18.5398H41.2053L40.9065 19.5316H40.0581C39.2993 19.5853 39.0185 19.2627 39.0305 18.8983L39.0066 17.793Z" fill="white"></path> <path d="M39.2156 22.5011H37.6801L37.943 21.6168H39.6995L39.9505 20.8103H38.2178L38.5166 19.8125H43.3381L43.0393 20.8103H41.4202L41.1633 21.6168H42.7884L42.5196 22.5011H40.763L40.4523 22.8715H41.1633L41.3366 23.9888C41.3401 24.0678 41.3605 24.1452 41.3963 24.2158C41.5138 24.2631 41.6404 24.2835 41.7668 24.2755H41.9818L41.6473 25.3569H41.1095H40.7272C40.586 25.3277 40.452 25.2709 40.3329 25.1896C40.2587 25.1541 40.194 25.1014 40.1441 25.036C40.0943 24.9705 40.0607 24.8942 40.0461 24.8132L39.8549 23.69L39.0782 24.7834C38.9471 24.9772 38.7683 25.134 38.559 25.2386C38.3497 25.3433 38.117 25.3923 37.8833 25.3808H36.7839L37.0767 24.4129H37.5009C37.6122 24.4094 37.7209 24.3786 37.8175 24.3233C37.9186 24.2891 38.0037 24.2189 38.0565 24.1262L39.2156 22.5011Z" fill="white"></path> <path d="M22.3844 20.0811H26.4531L26.1544 21.0549H24.5233L24.2724 21.8794H25.9393L25.6346 22.8831H23.9677L23.5674 24.2274C23.5196 24.3768 23.9617 24.4007 24.117 24.4007L24.9535 24.2872L24.6189 25.3925H22.7429C22.5998 25.3915 22.4574 25.3735 22.3187 25.3387C22.2557 25.3261 22.1962 25.2998 22.1446 25.2616C22.0929 25.2234 22.0504 25.1742 22.0199 25.1176C21.9634 25.0621 21.9239 24.9915 21.9059 24.9143C21.8879 24.8371 21.8922 24.7564 21.9184 24.6815L22.4561 22.8891H21.53L21.8347 21.8675H22.7668L23.0117 21.043H22.0857L22.3844 20.0811Z" fill="white"></path> <path d="M25.1275 18.3369H26.7944L26.4897 19.3526H24.2074L23.9625 19.5677C23.8549 19.6692 23.8191 19.6274 23.6817 19.7051C23.4483 19.8246 23.191 19.8899 22.9289 19.8963H22.2L22.4927 18.9164H22.7138C22.8417 18.929 22.9708 18.9105 23.0902 18.8627C23.195 18.7772 23.2788 18.6689 23.3351 18.546L23.7533 17.7812H25.4143L25.1275 18.3369Z" fill="white"></path> <path fill-rule="evenodd" clip-rule="evenodd" d="M28.3291 20.0095C28.6833 19.7203 29.1081 19.5306 29.5599 19.4599C29.7391 19.424 30.8504 19.4599 30.8504 19.4599L31.0177 18.8983H28.6637L28.3291 20.0095ZM30.5277 20.4337H28.1976L28.0543 20.9057H30.0737C30.1751 20.8993 30.2769 20.8993 30.3784 20.9057L30.5277 20.4337ZM27.5404 17.793H28.9624L28.7234 18.5219C28.9592 18.3321 29.2157 18.1698 29.4882 18.0379C29.8226 17.9369 30.1641 17.861 30.5098 17.8109H32.81L32.0274 20.3979C31.9465 20.7069 31.8175 21.0013 31.645 21.2702C31.547 21.4198 31.4136 21.5429 31.2566 21.6287C31.0917 21.7202 30.9116 21.7809 30.7249 21.8079C30.5696 21.8079 30.3366 21.8079 30.0139 21.8079H27.7973L27.1999 23.8751C27.1461 24.0783 27.1162 24.1738 27.1521 24.2276C27.1761 24.2621 27.2083 24.29 27.2459 24.3088C27.2835 24.3276 27.3252 24.3367 27.3672 24.3352L28.341 24.2455L28.0124 25.3747H26.8832C26.5367 25.3747 26.2858 25.3747 26.1065 25.3747C25.9273 25.3747 25.76 25.3747 25.6465 25.2792C25.533 25.1836 25.3836 25.076 25.3896 24.9505C25.4185 24.7641 25.4624 24.5802 25.521 24.4009L27.5404 17.793Z" fill="white"></path> <path d="M31.6575 22.0107L31.526 22.6082C31.4906 22.7864 31.4009 22.9492 31.2691 23.0742C31.1671 23.1694 31.0465 23.2425 30.9149 23.2888C30.7833 23.335 30.6435 23.3535 30.5044 23.3431L29.6978 23.4088V24.1198C29.6978 24.3169 29.7456 24.299 29.7755 24.3289C29.8044 24.3605 29.8417 24.3833 29.883 24.3946H30.128L30.8927 24.3349L30.582 25.3744H29.6978C29.2947 25.4174 28.887 25.3726 28.5029 25.243C28.3595 25.1474 28.3416 25.0339 28.3416 24.8367L28.3953 22.0705H29.7755V22.6679H30.11C30.192 22.6751 30.2744 22.6607 30.349 22.6261C30.3928 22.5861 30.4239 22.5342 30.4386 22.4768L30.5761 22.0406L31.6575 22.0107Z" fill="white"></path> <path d="M11.9533 8.15625C11.8996 8.37731 11.0153 12.4639 11.0153 12.4639C10.8182 13.2944 10.6867 13.8859 10.2147 14.2563C9.94965 14.4755 9.61462 14.5922 9.27073 14.5849C9.14996 14.6 9.02738 14.5896 8.91086 14.5544C8.79435 14.5193 8.68649 14.4601 8.5942 14.3808C8.50192 14.3014 8.42726 14.2036 8.37502 14.0937C8.32278 13.9838 8.29413 13.8642 8.29089 13.7425V13.5573C8.29089 13.5573 8.47013 12.446 8.47013 12.44C8.47013 12.4341 9.38425 8.72384 9.55751 8.23392V8.18015C8.84145 8.23074 8.12271 8.23074 7.40665 8.18015C7.40665 8.216 7.34691 8.44303 7.34691 8.44303L6.39694 12.6253L6.3133 12.9837L6.15796 14.1787C6.16427 14.4696 6.24667 14.7539 6.39694 15.0032C6.83309 15.7619 8.06386 15.8754 8.78679 15.8754C9.59117 15.9005 10.3882 15.7151 11.099 15.3377C11.4905 15.0736 11.8238 14.7323 12.0786 14.3347C12.3334 13.9371 12.5043 13.4916 12.5807 13.0256L12.6822 12.6073C12.6822 12.6073 13.6441 8.74176 13.8055 8.23392C13.8037 8.21604 13.8037 8.19803 13.8055 8.18015C13.1985 8.21394 12.5901 8.21394 11.9832 8.18015" fill="white"></path> <path d="M17.2526 15.8335C16.6073 15.8335 16.3803 15.8335 15.6335 15.8634L15.6036 15.8096C15.6693 15.5228 15.741 15.242 15.8008 14.9493L15.8963 14.5609C16.0178 14.0563 16.1135 13.5458 16.1831 13.0314C16.1831 12.9 16.2429 12.5773 15.8725 12.5773C15.703 12.5956 15.5387 12.6463 15.3885 12.7267C15.2989 13.0493 15.1137 13.9575 15.03 14.3757C14.8448 15.248 14.8329 15.3436 14.7492 15.7797L14.6955 15.8335C14.0323 15.8335 13.8052 15.8335 13.0405 15.8634L13.0046 15.7977C13.1361 15.2838 13.2615 14.7581 13.381 14.2383C13.596 13.3647 13.7576 12.4788 13.865 11.5856L13.9247 11.5437C14.6656 11.4362 14.8508 11.4183 15.6514 11.251L15.7171 11.3286L15.5976 11.7767C15.735 11.6931 15.8605 11.6154 16.0039 11.5437C16.3264 11.3875 16.6792 11.3038 17.0375 11.2988C17.2213 11.2783 17.4069 11.3163 17.5679 11.4075C17.7288 11.4987 17.8568 11.6384 17.9337 11.8066C18.0831 12.1711 17.9875 12.6192 17.7843 13.4974L17.6828 13.9455C17.4736 14.9254 17.4378 15.1046 17.3243 15.7797L17.2526 15.8335Z" fill="white"></path> <path d="M19.857 15.8332C19.4687 15.8332 19.2237 15.8332 18.9788 15.8332C18.7338 15.8332 18.5008 15.8332 18.1423 15.8631V15.8332V15.7974C18.1988 15.5828 18.2666 15.3714 18.3455 15.1641C18.4217 14.9554 18.4836 14.7418 18.5307 14.5248C18.6382 14.0349 18.7099 13.6883 18.7577 13.3896C18.8055 13.0909 18.8414 12.8519 18.8772 12.5651H18.9071H18.937L19.8152 12.4396C20.0662 12.4038 20.3231 12.35 20.7234 12.2783V12.3142V12.344C20.6517 12.6487 20.574 12.9415 20.5023 13.2641C20.4306 13.5868 20.3529 13.8616 20.2872 14.1782C20.1438 14.8295 20.0841 15.0685 20.0542 15.2417C20.0243 15.415 20.0064 15.4927 19.9526 15.8392L19.9168 15.8691L19.857 15.8332Z" fill="white"></path> <path d="M23.9503 13.5502C23.8801 13.9189 23.751 14.274 23.5679 14.6017C23.5205 14.6892 23.4519 14.7635 23.3684 14.8177C23.2849 14.872 23.1892 14.9045 23.09 14.9124C23.0362 14.9124 22.7196 14.9124 22.7136 14.4404C22.7218 14.2044 22.7559 13.97 22.8151 13.7414C22.9884 12.9886 23.1856 12.3672 23.6934 12.3672C24.0937 12.3672 24.1176 12.8332 23.9503 13.5621V13.5502ZM25.6232 13.6338C25.8502 12.648 25.677 12.188 25.4559 11.9012C25.2571 11.701 25.016 11.5477 24.7504 11.4526C24.4847 11.3575 24.2012 11.323 23.9205 11.3515C23.2142 11.3247 22.5236 11.5634 21.9847 12.0207C21.5389 12.4779 21.2412 13.0587 21.1303 13.6876C20.9929 14.285 20.8316 15.3844 21.8353 15.7847C22.169 15.9023 22.5211 15.959 22.8749 15.952C23.2542 15.9651 23.6321 15.8986 23.984 15.7565C24.336 15.6145 24.6543 15.4002 24.9182 15.1275C25.2711 14.6897 25.513 14.1732 25.6232 13.6219" fill="white"></path> <path d="M41.3248 15.8989C40.5481 15.8989 40.327 15.8989 39.61 15.8989L39.5623 15.8391C39.7594 15.1042 39.9566 14.3694 40.1298 13.6285C40.2745 12.996 40.3822 12.3557 40.4525 11.7107L40.5122 11.6629C41.2829 11.5494 41.4921 11.5195 42.3046 11.3701V11.4358C42.1552 12.0333 42.0118 12.6308 41.8685 13.2581C41.5757 14.5307 41.4682 15.1819 41.3546 15.8451L41.3248 15.8989Z" fill="white"></path> <path d="M40.1589 13.6342C40.0913 14.0017 39.962 14.3552 39.7765 14.6797C39.6251 14.8558 39.4105 14.9652 39.1791 14.9844C39.1253 14.9844 38.8146 14.9844 38.8027 14.5184C38.8054 14.2717 38.8415 14.0265 38.9102 13.7895C39.0775 13.0546 39.2747 12.4333 39.7825 12.4333C40.1828 12.4333 40.38 12.8873 40.1828 13.6282L40.1589 13.6342ZM41.7183 13.7059C41.9393 12.72 41.0372 13.6162 40.8878 13.2936C40.6668 12.7858 40.8101 11.7641 39.914 11.4176C39.5738 11.3743 39.2282 11.413 38.906 11.5305C38.5838 11.6479 38.2944 11.8407 38.0618 12.0927C37.6146 12.5433 37.3128 13.1177 37.1955 13.7417C37.0581 14.3392 36.9027 15.4206 37.8945 15.8149C38.1757 15.9333 38.4801 15.9864 38.7848 15.9702C39.7885 15.9165 40.5771 14.4109 41.1149 13.8074C41.551 13.3354 41.6287 13.9867 41.7123 13.6999" fill="white"></path> <path d="M30.0146 15.8325C29.3693 15.8325 29.1483 15.8325 28.3955 15.8624V15.8086C28.4612 15.5218 28.5329 15.241 28.5986 14.9483L28.6882 14.5599C28.8316 13.9625 28.9631 13.2455 28.981 13.0304C28.9989 12.8153 29.0348 12.5764 28.6703 12.5764C28.5005 12.5929 28.3359 12.6437 28.1864 12.7257C28.0967 13.0484 27.9115 13.9565 27.8219 14.3747C27.6367 15.247 27.6247 15.3426 27.5411 15.7788L27.4873 15.8325C26.8241 15.8325 26.5971 15.8325 25.8383 15.8624L25.8025 15.7967C25.9339 15.2829 26.0534 14.7571 26.1789 14.2373C26.3908 13.363 26.5524 12.4773 26.6628 11.5846L26.7226 11.5428C27.4634 11.4352 27.6427 11.4173 28.4492 11.25L28.503 11.3516L28.3895 11.7997C28.5209 11.716 28.6524 11.6384 28.7898 11.5667C29.1123 11.4104 29.4651 11.3268 29.8234 11.3217C30.008 11.3017 30.1941 11.3399 30.3559 11.431C30.5177 11.522 30.6469 11.6614 30.7256 11.8295C30.8749 12.194 30.7734 12.6421 30.5702 13.5204L30.4687 13.9684C30.2596 14.9483 30.2237 15.1275 30.1162 15.8027L30.0146 15.8325Z" fill="white"></path> <path d="M35.5769 8.14453H35.0451C33.6531 8.14453 33.0974 8.14453 32.8704 8.14453C32.8704 8.2461 32.8106 8.43131 32.8106 8.43131L32.3147 10.7554C32.3147 10.7554 31.1198 15.6546 31.072 15.8876C32.2669 15.8876 32.7808 15.8876 32.9839 15.8876L33.3185 14.2864C33.3185 14.2864 33.5575 13.2827 33.5694 13.2468C33.6123 13.1902 33.6649 13.1416 33.7247 13.1035H33.8323C34.8778 13.1035 36.0608 13.1035 36.9869 12.4224C37.6287 11.9282 38.0718 11.2201 38.2356 10.4268C38.2945 10.2005 38.3246 9.96765 38.3252 9.73378C38.3442 9.40989 38.2514 9.08929 38.0623 8.82564C37.5963 8.16246 36.6583 8.15648 35.5709 8.14453H35.5769ZM36.264 10.5344C36.2128 10.7783 36.108 11.0079 35.9572 11.2063C35.8063 11.4047 35.6131 11.567 35.3917 11.6815C35.0128 11.8344 34.6044 11.8998 34.1967 11.8727H33.8801V11.7592L34.4059 9.46492V9.3514V9.25581H34.6209L35.7322 9.3514C35.847 9.39315 35.9523 9.45749 36.0418 9.54061C36.1313 9.62373 36.2032 9.72394 36.2534 9.83534C36.3035 9.94673 36.3308 10.067 36.3336 10.1892C36.3365 10.3113 36.3148 10.4327 36.2699 10.5463" fill="white"></path> <path d="M47.6689 11.3528L47.6211 11.2991C46.8325 11.4544 46.6891 11.4843 45.9602 11.5799L45.9064 11.6336C45.9064 11.6336 45.9064 11.6336 45.9064 11.6635C45.3627 12.9122 45.3807 12.6433 44.9385 13.6292C44.9385 13.5814 44.9385 13.5515 44.9385 13.5037L44.7952 11.3528L44.7235 11.2871C43.899 11.4424 43.8751 11.4723 43.1103 11.5679L43.0446 11.6217C43.0446 11.6217 43.0446 11.6755 43.0446 11.7053C43.1236 12.0862 43.1815 12.4712 43.2179 12.8584C43.2597 13.2348 43.3194 13.6172 43.3613 13.9936C43.4389 14.6209 43.4807 14.9316 43.5704 15.8816C43.0565 16.7419 42.9311 17.0765 42.4412 17.8174V17.8831C43.194 17.8831 43.3613 17.8831 43.9169 17.8831L44.0364 17.7457C44.4546 16.8375 47.6211 11.3648 47.6211 11.3648" fill="white"></path> <path d="M20.5624 11.8958C20.9866 11.5971 21.0404 11.1908 20.6819 10.9757C20.4515 10.8773 20.1996 10.8398 19.9506 10.867C19.7015 10.8942 19.4636 10.9852 19.2599 11.1311C18.8298 11.4179 18.782 11.8301 19.1404 12.0452C19.3707 12.1428 19.622 12.1804 19.8707 12.1542C20.1195 12.1281 20.3575 12.0392 20.5624 11.8958Z" fill="white"></path> <path d="M44.001 17.8171L43.4035 18.8866C43.2948 19.0955 43.1268 19.2676 42.9206 19.3814C42.7144 19.4951 42.4792 19.5454 42.2445 19.5258H41.2527L41.5275 18.5221H41.7247C41.8035 18.5269 41.8826 18.5168 41.9577 18.4922C42.009 18.4665 42.0524 18.4272 42.0832 18.3787L42.4476 17.7812L44.001 17.8171Z" fill="white"></path></g> <defs><clipPath id="clip0_2875_6522"><rect width="51.1546" height="32" fill="white" transform="translate(0.422607)"></rect></clipPath></defs></svg>