<svg data-v-3670e996="" width="41" height="14" viewBox="0 0 41 14" fill="none" xmlns="http://www.w3.org/2000/svg"><path d="M15.6095 0.248355L10.3724 13.7882H6.95569L4.37854 2.98207C4.22208 2.31648 4.08687 2.07264 3.61019 1.79222C2.8333 1.33547 1.55035 0.906947 0.422607 0.640756L0.498234 0.248355H5.99838C6.69944 0.248355 7.32966 0.754096 7.48883 1.62898L8.84991 9.46346L12.2135 0.248355H15.6095ZM28.9969 9.36818C29.0106 5.79435 24.4368 5.5977 24.4682 4.001C24.478 3.51513 24.9057 2.99855 25.8393 2.86669C26.3024 2.80099 27.5785 2.75087 29.0269 3.47268L29.5946 0.601245C28.8158 0.29351 27.8152 0 26.5702 0C23.3753 0 21.1269 1.84054 21.1079 4.47604C21.0871 6.4254 22.7121 7.51319 23.9374 8.16095C25.1972 8.82428 25.6199 9.25055 25.6151 9.84389C25.6062 10.7522 24.6103 11.1534 23.6797 11.169C22.0546 11.1961 21.1123 10.6926 20.3608 10.314L19.775 13.2804C20.5302 13.6559 21.9242 13.9835 23.3695 14C26.7654 14 28.9865 12.1823 28.9969 9.36728V9.36818ZM37.4334 13.7882H40.4226L37.8134 0.248355H35.0541C34.7595 0.245603 34.4709 0.338836 34.2257 0.515968C33.9805 0.6931 33.7901 0.945962 33.6791 1.24178L28.8283 13.7882H32.2224L32.8962 11.7657H37.0421L37.4334 13.7882ZM33.8268 8.99045L35.5281 3.90595L36.5073 8.99L33.8268 8.99045ZM20.2277 0.248355L17.5549 13.7882H14.3228L16.9966 0.248355H20.2277Z" fill="white"></path></svg>